<?xml version="1.0" encoding="utf-8"?>
<!-- Generator: Adobe Illustrator 27.1.1, SVG Export Plug-In . SVG Version: 6.00 Build 0)  -->
<svg version="1.1" id="Capa_1" xmlns="http://www.w3.org/2000/svg" xmlns:xlink="http://www.w3.org/1999/xlink" x="0px" y="0px"
	 viewBox="0 0 800 800" style="enable-background:new 0 0 800 800;" xml:space="preserve">
<g>
	<path d="M353.7,140l-61.6-86l-5.2-7.3H0v706.7h626.7c95.6,0,173.3-77.8,173.3-173.3V140H353.7z M773.3,166.7v66.7H420.5l-47.7-66.7
		H773.3z M626.7,726.7C545.8,726.7,480,660.9,480,580s65.8-146.7,146.7-146.7S773.3,499.1,773.3,580S707.5,726.7,626.7,726.7z
		 M769.3,481.8c-2.8-4-5.7-8-8.8-11.8c-0.2-0.3-0.5-0.5-0.7-0.8c-3-3.6-6.1-7-9.3-10.3c-0.8-0.8-1.6-1.6-2.4-2.4
		c-3.5-3.4-7-6.7-10.8-9.8c-0.6-0.5-1.2-0.9-1.7-1.4c-3.4-2.7-6.9-5.3-10.5-7.8c-0.9-0.6-1.7-1.2-2.6-1.8c-4-2.7-8.2-5.2-12.5-7.6
		c-0.9-0.5-1.7-0.9-2.6-1.4c-3.8-2-7.8-3.9-11.8-5.7c-0.8-0.3-1.6-0.7-2.4-1.1c-4.5-1.9-9.2-3.6-13.9-5.1c-1.1-0.3-2.1-0.6-3.2-1
		c-4.4-1.3-8.8-2.5-13.4-3.4c-0.6-0.1-1.1-0.3-1.7-0.4c-4.9-1-10-1.7-15.1-2.3c-1.2-0.1-2.4-0.2-3.6-0.3c-5.2-0.5-10.5-0.8-15.8-0.8
		c-95.6,0-173.3,77.8-173.3,173.3c0,5.3,0.3,10.6,0.8,15.8c0.1,1.2,0.2,2.4,0.4,3.6c0.6,5.1,1.3,10.1,2.3,15.1
		c0.1,0.6,0.3,1.1,0.4,1.7c1,4.5,2.1,9,3.4,13.3c0.3,1.1,0.6,2.2,1,3.3c1.5,4.7,3.2,9.3,5.1,13.8c0.3,0.8,0.7,1.7,1.1,2.5
		c1.7,4,3.6,7.9,5.6,11.7c0.5,0.9,0.9,1.8,1.4,2.7c2.3,4.3,4.9,8.4,7.5,12.4c0.6,0.9,1.2,1.8,1.8,2.6c2.5,3.5,5,7,7.7,10.4
		c0.5,0.6,1,1.2,1.5,1.8c3.1,3.7,6.4,7.3,9.7,10.7c0.8,0.8,1.6,1.6,2.5,2.4c3.3,3.2,6.7,6.3,10.2,9.3c0.3,0.2,0.6,0.5,0.9,0.7
		c3.8,3.1,7.7,6,11.7,8.8c1,0.7,1.9,1.3,2.9,2c1,0.7,2,1.4,3.1,2.1H26.7V73.3h246.5l66.7,93.3h0.2l62.5,87.3
		c2.6,3.6,6.7,5.6,10.8,5.6v0.4h360v227.7c-0.7-1-1.4-2-2.1-3.1C770.6,483.7,770,482.7,769.3,481.8z"/>
</g>
<circle cx="548" cy="580" r="20"/>
<circle cx="626.7" cy="580" r="26.3"/>
<circle cx="705" cy="580" r="30"/>
</svg>
