<?xml version="1.0" encoding="utf-8"?>
<!-- Generator: Adobe Illustrator 27.1.1, SVG Export Plug-In . SVG Version: 6.00 Build 0)  -->
<svg version="1.1" id="Capa_1" xmlns="http://www.w3.org/2000/svg" xmlns:xlink="http://www.w3.org/1999/xlink" x="0px" y="0px"
	 viewBox="0 0 800 800" style="enable-background:new 0 0 800 800;" xml:space="preserve">
<g>
	<path d="M353.7,140l-61.6-86l-5.2-7.3H0v706.7h626.7c95.6,0,173.3-77.8,173.3-173.3V140H353.7z M773.3,166.7v66.7H420.5l-47.7-66.7
		H773.3z M773.4,336.5v151.1v66.1c0,4.8-0.2,9.6-0.6,14.3c0.3,4,0.5,8,0.5,12c0,80.9-65.8,146.7-146.6,146.7c-3.7,0-7.4-0.1-11-0.4
		c-5.1,0.5-10.3,0.7-15.6,0.7H352.6v-0.4H26.7V73.3h246.5l66.7,93.3h0.2l62.5,87.3c2.6,3.6,6.7,5.6,10.8,5.6v0.4h360V336.5z"/>
</g>
</svg>
